<svg width="99" height="99" viewBox="0 0 99 99" fill="none" xmlns="http://www.w3.org/2000/svg">
<g clip-path="url(#clip0_1_14)">
<path d="M0 49.5008C0 69.7703 12.1886 87.1834 29.63 94.8393C29.4908 91.3828 29.6053 87.2333 30.4916 83.4725C31.4433 79.4541 36.8609 56.4996 36.8609 56.4996C36.8609 56.4996 35.2796 53.339 35.2796 48.6678C35.2796 41.3321 39.5312 35.8535 44.8261 35.8535C49.3287 35.8535 51.504 39.2353 51.504 43.285C51.504 47.8112 48.6171 54.5815 47.1325 60.8521C45.8923 66.103 49.7653 70.3859 54.9454 70.3859C64.3241 70.3859 70.6408 58.34 70.6408 44.0678C70.6408 33.2188 63.3337 25.0984 50.0433 25.0984C35.0278 25.0984 25.6735 36.2963 25.6735 48.8043C25.6735 53.117 26.945 56.1581 28.9366 58.5133C29.8524 59.5949 29.9796 60.03 29.6482 61.2721C29.4107 62.1828 28.8655 64.3755 28.6396 65.2445C28.3101 66.4982 27.2942 66.9464 26.1611 66.4835C19.2451 63.6601 16.0241 56.0862 16.0241 47.5722C16.0241 33.5107 27.8832 16.6498 51.4019 16.6498C70.3008 16.6498 82.7396 30.3257 82.7396 45.0059C82.7396 64.4242 71.944 78.9312 56.0305 78.9312C50.6865 78.9312 45.6595 76.0424 43.9374 72.7611C43.9374 72.7611 41.0637 84.1662 40.455 86.3686C39.4055 90.1851 37.3512 93.9997 35.4729 96.9728C40.0276 98.3195 44.7524 99.0032 49.5019 99.0027C76.8368 99.0027 99.0004 76.8402 99.0004 49.5008C99.0004 22.1625 76.8368 0 49.5019 0C22.1644 0 0 22.1625 0 49.5008Z" fill="#CB1F27"/>
</g>
<defs>
<clipPath id="clip0_1_14">
<rect width="99" height="99" fill="white"/>
</clipPath>
</defs>
</svg>
