<svg width="109" height="89" viewBox="0 0 109 89" fill="none" xmlns="http://www.w3.org/2000/svg">
<g clip-path="url(#clip0_1_18)">
<path d="M109 10.8376C104.918 12.6462 100.589 13.8333 96.1559 14.3592C100.773 11.5913 104.319 7.20815 105.988 1.98568C101.599 4.59076 96.7962 6.42629 91.7882 7.41297C87.7088 3.06645 81.8973 0.350037 75.465 0.350037C63.1148 0.350037 53.1017 10.364 53.1017 22.715C53.1017 24.4682 53.2997 26.1749 53.6808 27.8123C35.0954 26.8793 18.6177 17.9754 7.58785 4.44404C5.66332 7.74726 4.56054 11.5896 4.56054 15.6878C4.56054 23.4475 8.50881 30.2928 14.5089 34.3037C10.9577 34.1927 7.48452 33.2334 4.37959 31.506C4.37845 31.5997 4.37802 31.6935 4.37831 31.7875C4.37831 42.6238 12.0867 51.6634 22.3165 53.7181C19.0234 54.6137 15.5693 54.7448 12.2178 54.1014C15.0633 62.9869 23.3222 69.4528 33.1075 69.6338C25.4541 75.6321 15.8114 79.2079 5.33461 79.2079C3.5293 79.2079 1.74954 79.1018 0 78.8953C9.89643 85.2411 21.651 88.9438 34.2796 88.9438C75.4131 88.9438 97.9058 54.8636 97.9058 25.3088C97.9058 24.3387 97.8843 23.3742 97.8411 22.4152C102.219 19.2496 105.998 15.3291 109 10.8376Z" fill="#55ACEE"/>
</g>
<defs>
<clipPath id="clip0_1_18">
<rect width="109" height="89" fill="white"/>
</clipPath>
</defs>
</svg>
